<mxfile host="65bd71144e">
    <diagram id="Rkgj-rZudK05lo8DLNhV" name="Page-1">
        <mxGraphModel dx="1274" dy="2050" grid="1" gridSize="10" guides="1" tooltips="1" connect="1" arrows="1" fold="1" page="1" pageScale="1" pageWidth="850" pageHeight="1100" math="0" shadow="0">
            <root>
                <mxCell id="0"/>
                <mxCell id="1" parent="0"/>
                <mxCell id="142" value="" style="whiteSpace=wrap;html=1;" vertex="1" parent="1">
                    <mxGeometry x="100" y="-120" width="880" height="710" as="geometry"/>
                </mxCell>
                <mxCell id="141" value="" style="group" vertex="1" connectable="0" parent="1">
                    <mxGeometry x="180" y="-60" width="740" height="666" as="geometry"/>
                </mxCell>
                <mxCell id="35" value="" style="group" vertex="1" connectable="0" parent="141">
                    <mxGeometry x="290" y="440" width="110" height="110" as="geometry"/>
                </mxCell>
                <mxCell id="6" value="" style="whiteSpace=wrap;html=1;aspect=fixed;" vertex="1" parent="35">
                    <mxGeometry width="110" height="110" as="geometry"/>
                </mxCell>
                <mxCell id="7" value="" style="endArrow=none;html=1;entryX=0.25;entryY=0;entryDx=0;entryDy=0;exitX=0.184;exitY=0.998;exitDx=0;exitDy=0;exitPerimeter=0;" edge="1" parent="35" source="6">
                    <mxGeometry width="50" height="50" relative="1" as="geometry">
                        <mxPoint x="21" y="110" as="sourcePoint"/>
                        <mxPoint x="20.5" as="targetPoint"/>
                    </mxGeometry>
                </mxCell>
                <mxCell id="8" value="" style="endArrow=none;html=1;exitX=1;exitY=0.25;exitDx=0;exitDy=0;entryX=0;entryY=0.25;entryDx=0;entryDy=0;" edge="1" parent="35" source="6" target="6">
                    <mxGeometry width="50" height="50" relative="1" as="geometry">
                        <mxPoint x="35" y="110" as="sourcePoint"/>
                        <mxPoint x="35" y="10" as="targetPoint"/>
                    </mxGeometry>
                </mxCell>
                <mxCell id="11" value="Staff" style="text;strokeColor=none;align=center;fillColor=none;html=1;verticalAlign=middle;whiteSpace=wrap;rounded=0;" vertex="1" parent="35">
                    <mxGeometry x="30" y="1" width="60" height="30" as="geometry"/>
                </mxCell>
                <mxCell id="12" value="Login_id" style="text;strokeColor=none;align=center;fillColor=none;html=1;verticalAlign=middle;whiteSpace=wrap;rounded=0;" vertex="1" parent="35">
                    <mxGeometry x="20" y="34" width="60" height="30" as="geometry"/>
                </mxCell>
                <mxCell id="13" value="Staff_id" style="text;strokeColor=none;align=center;fillColor=none;html=1;verticalAlign=middle;whiteSpace=wrap;rounded=0;" vertex="1" parent="35">
                    <mxGeometry x="7" y="60" width="90" height="30" as="geometry"/>
                </mxCell>
                <mxCell id="14" value="FK" style="text;strokeColor=none;align=center;fillColor=none;html=1;verticalAlign=middle;whiteSpace=wrap;rounded=0;" vertex="1" parent="35">
                    <mxGeometry y="34" width="20" height="30" as="geometry"/>
                </mxCell>
                <mxCell id="15" value="Pk" style="text;strokeColor=none;align=center;fillColor=none;html=1;verticalAlign=middle;whiteSpace=wrap;rounded=0;" vertex="1" parent="35">
                    <mxGeometry y="60" width="20" height="30" as="geometry"/>
                </mxCell>
                <mxCell id="36" value="" style="group" vertex="1" connectable="0" parent="141">
                    <mxGeometry x="390" y="140" width="110" height="210" as="geometry"/>
                </mxCell>
                <mxCell id="37" value="" style="whiteSpace=wrap;html=1;" vertex="1" parent="36">
                    <mxGeometry width="110" height="120" as="geometry"/>
                </mxCell>
                <mxCell id="38" value="" style="endArrow=none;html=1;entryX=0.25;entryY=0;entryDx=0;entryDy=0;exitX=0.184;exitY=0.998;exitDx=0;exitDy=0;exitPerimeter=0;" edge="1" parent="36" source="37">
                    <mxGeometry width="50" height="50" relative="1" as="geometry">
                        <mxPoint x="21" y="190" as="sourcePoint"/>
                        <mxPoint x="20.5" as="targetPoint"/>
                    </mxGeometry>
                </mxCell>
                <mxCell id="39" value="" style="endArrow=none;html=1;exitX=1;exitY=0.25;exitDx=0;exitDy=0;entryX=0;entryY=0.25;entryDx=0;entryDy=0;" edge="1" parent="36">
                    <mxGeometry width="50" height="50" relative="1" as="geometry">
                        <mxPoint x="110" y="27.5" as="sourcePoint"/>
                        <mxPoint y="27.5" as="targetPoint"/>
                    </mxGeometry>
                </mxCell>
                <mxCell id="40" value="Readers" style="text;strokeColor=none;align=center;fillColor=none;html=1;verticalAlign=middle;whiteSpace=wrap;rounded=0;" vertex="1" parent="36">
                    <mxGeometry x="27" y="1" width="60" height="28.27" as="geometry"/>
                </mxCell>
                <mxCell id="41" value="user_id" style="text;strokeColor=none;align=left;fillColor=none;html=1;verticalAlign=middle;whiteSpace=wrap;rounded=0;" vertex="1" parent="36">
                    <mxGeometry x="22" y="21.18" width="88" height="51.82" as="geometry"/>
                </mxCell>
                <mxCell id="42" value="name" style="text;strokeColor=none;align=center;fillColor=none;html=1;verticalAlign=middle;whiteSpace=wrap;rounded=0;" vertex="1" parent="36">
                    <mxGeometry x="10" y="56" width="60" height="20" as="geometry"/>
                </mxCell>
                <mxCell id="43" value="PK" style="text;strokeColor=none;align=center;fillColor=none;html=1;verticalAlign=middle;whiteSpace=wrap;rounded=0;" vertex="1" parent="36">
                    <mxGeometry y="22.545454545454547" width="20" height="51.81818181818181" as="geometry"/>
                </mxCell>
                <mxCell id="45" value="Phone_no" style="text;strokeColor=none;align=center;fillColor=none;html=1;verticalAlign=middle;whiteSpace=wrap;rounded=0;" vertex="1" parent="36">
                    <mxGeometry x="21" y="74.08999999999997" width="60" height="20" as="geometry"/>
                </mxCell>
                <mxCell id="46" value="Address" style="text;strokeColor=none;align=center;fillColor=none;html=1;verticalAlign=middle;whiteSpace=wrap;rounded=0;" vertex="1" parent="36">
                    <mxGeometry x="16" y="94.08999999999997" width="60" height="20" as="geometry"/>
                </mxCell>
                <mxCell id="57" value="" style="whiteSpace=wrap;html=1;" vertex="1" parent="141">
                    <mxGeometry y="250" width="120" height="90" as="geometry"/>
                </mxCell>
                <mxCell id="58" value="" style="endArrow=none;html=1;entryX=0.25;entryY=0;entryDx=0;entryDy=0;exitX=0.184;exitY=0.998;exitDx=0;exitDy=0;exitPerimeter=0;" edge="1" parent="141" source="57">
                    <mxGeometry width="50" height="50" relative="1" as="geometry">
                        <mxPoint x="-559" y="230" as="sourcePoint"/>
                        <mxPoint x="20.5" y="250" as="targetPoint"/>
                    </mxGeometry>
                </mxCell>
                <mxCell id="59" value="" style="endArrow=none;html=1;exitX=1;exitY=0.307;exitDx=0;exitDy=0;entryX=0;entryY=0.25;entryDx=0;entryDy=0;exitPerimeter=0;" edge="1" parent="141" source="57">
                    <mxGeometry width="50" height="50" relative="1" as="geometry">
                        <mxPoint x="110" y="277.5" as="sourcePoint"/>
                        <mxPoint y="277.5" as="targetPoint"/>
                    </mxGeometry>
                </mxCell>
                <mxCell id="60" value="Authantication" style="text;strokeColor=none;align=center;fillColor=none;html=1;verticalAlign=middle;whiteSpace=wrap;rounded=0;" vertex="1" parent="141">
                    <mxGeometry x="32" y="251" width="60" height="28.27" as="geometry"/>
                </mxCell>
                <mxCell id="61" value="Login_id" style="text;strokeColor=none;align=center;fillColor=none;html=1;verticalAlign=middle;whiteSpace=wrap;rounded=0;" vertex="1" parent="141">
                    <mxGeometry x="20" y="284" width="60" height="27.73" as="geometry"/>
                </mxCell>
                <mxCell id="62" value="Passwoard" style="text;strokeColor=none;align=center;fillColor=none;html=1;verticalAlign=middle;whiteSpace=wrap;rounded=0;" vertex="1" parent="141">
                    <mxGeometry x="26" y="306" width="60" height="20" as="geometry"/>
                </mxCell>
                <mxCell id="137" style="edgeStyle=orthogonalEdgeStyle;html=1;exitX=0;exitY=0.5;exitDx=0;exitDy=0;entryX=0;entryY=0.5;entryDx=0;entryDy=0;labelBorderColor=none;startArrow=none;startFill=0;endArrow=open;endFill=0;" edge="1" parent="141" source="63" target="14">
                    <mxGeometry relative="1" as="geometry"/>
                </mxCell>
                <mxCell id="63" value="PK" style="text;strokeColor=none;align=center;fillColor=none;html=1;verticalAlign=middle;whiteSpace=wrap;rounded=0;" vertex="1" parent="141">
                    <mxGeometry y="272.5454545454545" width="20" height="51.81818181818181" as="geometry"/>
                </mxCell>
                <mxCell id="65" value="" style="group" vertex="1" connectable="0" parent="141">
                    <mxGeometry x="230" y="210" width="120.00000000000011" height="203" as="geometry"/>
                </mxCell>
                <mxCell id="16" value="" style="whiteSpace=wrap;html=1;" vertex="1" parent="65">
                    <mxGeometry width="120" height="200" as="geometry"/>
                </mxCell>
                <mxCell id="18" value="" style="endArrow=none;html=1;exitX=1;exitY=0.25;exitDx=0;exitDy=0;entryX=0;entryY=0.25;entryDx=0;entryDy=0;" edge="1" parent="65">
                    <mxGeometry width="50" height="50" relative="1" as="geometry">
                        <mxPoint x="120.00000000000011" y="28.499999999999943" as="sourcePoint"/>
                        <mxPoint y="28.500000000000057" as="targetPoint"/>
                    </mxGeometry>
                </mxCell>
                <mxCell id="86" value="" style="group" vertex="1" connectable="0" parent="65">
                    <mxGeometry width="100" height="203" as="geometry"/>
                </mxCell>
                <mxCell id="17" value="" style="endArrow=none;html=1;entryX=0.25;entryY=0;entryDx=0;entryDy=0;exitX=0.172;exitY=1.004;exitDx=0;exitDy=0;exitPerimeter=0;" edge="1" parent="86" source="16">
                    <mxGeometry width="50" height="50" relative="1" as="geometry">
                        <mxPoint x="20" y="170" as="sourcePoint"/>
                        <mxPoint x="20.5" as="targetPoint"/>
                    </mxGeometry>
                </mxCell>
                <mxCell id="19" value="Books" style="text;strokeColor=none;align=center;fillColor=none;html=1;verticalAlign=middle;whiteSpace=wrap;rounded=0;" vertex="1" parent="86">
                    <mxGeometry x="40" y="1" width="60" height="30" as="geometry"/>
                </mxCell>
                <mxCell id="20" value="ISBN" style="text;strokeColor=none;align=center;fillColor=none;html=1;verticalAlign=middle;whiteSpace=wrap;rounded=0;" vertex="1" parent="86">
                    <mxGeometry x="10" y="28" width="60" height="30" as="geometry"/>
                </mxCell>
                <mxCell id="21" value="Auth_no" style="text;strokeColor=none;align=center;fillColor=none;html=1;verticalAlign=middle;whiteSpace=wrap;rounded=0;" vertex="1" parent="86">
                    <mxGeometry x="18" y="46" width="60" height="30" as="geometry"/>
                </mxCell>
                <mxCell id="22" value="PK" style="text;strokeColor=none;align=center;fillColor=none;html=1;verticalAlign=middle;whiteSpace=wrap;rounded=0;" vertex="1" parent="86">
                    <mxGeometry y="28" width="20" height="30" as="geometry"/>
                </mxCell>
                <mxCell id="24" value="Title" style="text;strokeColor=none;align=center;fillColor=none;html=1;verticalAlign=middle;whiteSpace=wrap;rounded=0;" vertex="1" parent="86">
                    <mxGeometry x="6" y="67" width="60" height="30" as="geometry"/>
                </mxCell>
                <mxCell id="25" value="price" style="text;strokeColor=none;align=center;fillColor=none;html=1;verticalAlign=middle;whiteSpace=wrap;rounded=0;" vertex="1" parent="86">
                    <mxGeometry x="9" y="85" width="60" height="30" as="geometry"/>
                </mxCell>
                <mxCell id="27" value="Category" style="text;strokeColor=none;align=center;fillColor=none;html=1;verticalAlign=middle;whiteSpace=wrap;rounded=0;" vertex="1" parent="86">
                    <mxGeometry x="19" y="104" width="60" height="30" as="geometry"/>
                </mxCell>
                <mxCell id="28" value="edition" style="text;strokeColor=none;align=center;fillColor=none;html=1;verticalAlign=middle;whiteSpace=wrap;rounded=0;" vertex="1" parent="86">
                    <mxGeometry x="13" y="122" width="60" height="30" as="geometry"/>
                </mxCell>
                <mxCell id="29" value="Read_id" style="text;strokeColor=none;align=center;fillColor=none;html=1;verticalAlign=middle;whiteSpace=wrap;rounded=0;" vertex="1" parent="86">
                    <mxGeometry x="17" y="143" width="60" height="20" as="geometry"/>
                </mxCell>
                <mxCell id="30" value="Publish_id" style="text;strokeColor=none;align=center;fillColor=none;html=1;verticalAlign=middle;whiteSpace=wrap;rounded=0;" vertex="1" parent="86">
                    <mxGeometry x="23" y="161" width="60" height="20" as="geometry"/>
                </mxCell>
                <mxCell id="31" value="Staff_id" style="text;strokeColor=none;align=center;fillColor=none;html=1;verticalAlign=middle;whiteSpace=wrap;rounded=0;" vertex="1" parent="86">
                    <mxGeometry x="16" y="178" width="60" height="20" as="geometry"/>
                </mxCell>
                <mxCell id="32" value="FK" style="text;strokeColor=none;align=center;fillColor=none;html=1;verticalAlign=middle;whiteSpace=wrap;rounded=0;" vertex="1" parent="86">
                    <mxGeometry y="173" width="20" height="30" as="geometry"/>
                </mxCell>
                <mxCell id="33" value="FK" style="text;strokeColor=none;align=center;fillColor=none;html=1;verticalAlign=middle;whiteSpace=wrap;rounded=0;" vertex="1" parent="86">
                    <mxGeometry y="156" width="20" height="34" as="geometry"/>
                </mxCell>
                <mxCell id="34" value="FK" style="text;strokeColor=none;align=center;fillColor=none;html=1;verticalAlign=middle;whiteSpace=wrap;rounded=0;" vertex="1" parent="86">
                    <mxGeometry y="138" width="20" height="30" as="geometry"/>
                </mxCell>
                <mxCell id="104" value="" style="group" vertex="1" connectable="0" parent="141">
                    <mxGeometry x="560" y="230" width="180" height="436" as="geometry"/>
                </mxCell>
                <mxCell id="105" value="" style="whiteSpace=wrap;html=1;" vertex="1" parent="104">
                    <mxGeometry width="120" height="170" as="geometry"/>
                </mxCell>
                <mxCell id="106" value="" style="endArrow=none;html=1;exitX=1;exitY=0.25;exitDx=0;exitDy=0;entryX=0;entryY=0.25;entryDx=0;entryDy=0;" edge="1" parent="104">
                    <mxGeometry width="50" height="50" relative="1" as="geometry">
                        <mxPoint x="120.00000000000011" y="28.499999999999943" as="sourcePoint"/>
                        <mxPoint y="28.500000000000057" as="targetPoint"/>
                    </mxGeometry>
                </mxCell>
                <mxCell id="107" value="" style="group" vertex="1" connectable="0" parent="104">
                    <mxGeometry width="180" height="436" as="geometry"/>
                </mxCell>
                <mxCell id="108" value="" style="endArrow=none;html=1;entryX=0.25;entryY=0;entryDx=0;entryDy=0;exitX=0.172;exitY=1.004;exitDx=0;exitDy=0;exitPerimeter=0;" edge="1" parent="107" source="105">
                    <mxGeometry width="50" height="50" relative="1" as="geometry">
                        <mxPoint x="20" y="170" as="sourcePoint"/>
                        <mxPoint x="20.5" as="targetPoint"/>
                    </mxGeometry>
                </mxCell>
                <mxCell id="109" value="Reports" style="text;strokeColor=none;align=center;fillColor=none;html=1;verticalAlign=middle;whiteSpace=wrap;rounded=0;" vertex="1" parent="107">
                    <mxGeometry x="40" y="1" width="60" height="30" as="geometry"/>
                </mxCell>
                <mxCell id="111" value="reg_no" style="text;strokeColor=none;align=center;fillColor=none;html=1;verticalAlign=middle;whiteSpace=wrap;rounded=0;" vertex="1" parent="107">
                    <mxGeometry x="18" y="46" width="60" height="30" as="geometry"/>
                </mxCell>
                <mxCell id="113" value="book_no" style="text;strokeColor=none;align=center;fillColor=none;html=1;verticalAlign=middle;whiteSpace=wrap;rounded=0;" vertex="1" parent="107">
                    <mxGeometry x="23" y="67" width="60" height="30" as="geometry"/>
                </mxCell>
                <mxCell id="114" value="issue_date" style="text;strokeColor=none;align=center;fillColor=none;html=1;verticalAlign=middle;whiteSpace=wrap;rounded=0;" vertex="1" parent="107">
                    <mxGeometry x="26" y="90" width="60" height="25" as="geometry"/>
                </mxCell>
                <mxCell id="115" value="return_date" style="text;strokeColor=none;align=center;fillColor=none;html=1;verticalAlign=middle;whiteSpace=wrap;rounded=0;" vertex="1" parent="107">
                    <mxGeometry x="26" y="104" width="60" height="30" as="geometry"/>
                </mxCell>
                <mxCell id="117" value="user_id" style="text;strokeColor=none;align=center;fillColor=none;html=1;verticalAlign=middle;whiteSpace=wrap;rounded=0;" vertex="1" parent="107">
                    <mxGeometry x="17" y="127" width="60" height="20" as="geometry"/>
                </mxCell>
                <mxCell id="119" value="Staff_id" style="text;strokeColor=none;align=center;fillColor=none;html=1;verticalAlign=middle;whiteSpace=wrap;rounded=0;" vertex="1" parent="107">
                    <mxGeometry x="16" y="144" width="60" height="20" as="geometry"/>
                </mxCell>
                <mxCell id="120" value="FK" style="text;strokeColor=none;align=center;fillColor=none;html=1;verticalAlign=middle;whiteSpace=wrap;rounded=0;" vertex="1" parent="107">
                    <mxGeometry y="138" width="20" height="30" as="geometry"/>
                </mxCell>
                <mxCell id="122" value="FK" style="text;strokeColor=none;align=center;fillColor=none;html=1;verticalAlign=middle;whiteSpace=wrap;rounded=0;" vertex="1" parent="107">
                    <mxGeometry y="122" width="20" height="30" as="geometry"/>
                </mxCell>
                <mxCell id="110" value="Report_id" style="text;strokeColor=none;align=center;fillColor=none;html=1;verticalAlign=middle;whiteSpace=wrap;rounded=0;" vertex="1" parent="104">
                    <mxGeometry x="25" y="28" width="60" height="30" as="geometry"/>
                </mxCell>
                <mxCell id="128" style="edgeStyle=orthogonalEdgeStyle;html=1;exitX=0;exitY=0.5;exitDx=0;exitDy=0;entryX=0;entryY=0.4;entryDx=0;entryDy=0;labelBorderColor=none;startArrow=none;startFill=0;endArrow=open;endFill=0;entryPerimeter=0;" edge="1" parent="141" source="43" target="34">
                    <mxGeometry relative="1" as="geometry">
                        <Array as="points">
                            <mxPoint x="200" y="189"/>
                            <mxPoint x="200" y="360"/>
                        </Array>
                    </mxGeometry>
                </mxCell>
                <mxCell id="129" value="" style="group" vertex="1" connectable="0" parent="141">
                    <mxGeometry x="290" width="120" height="120" as="geometry"/>
                </mxCell>
                <mxCell id="48" value="" style="whiteSpace=wrap;html=1;" vertex="1" parent="129">
                    <mxGeometry width="120" height="120" as="geometry"/>
                </mxCell>
                <mxCell id="49" value="" style="endArrow=none;html=1;entryX=0.25;entryY=0;entryDx=0;entryDy=0;exitX=0.184;exitY=0.998;exitDx=0;exitDy=0;exitPerimeter=0;" edge="1" parent="129" source="48">
                    <mxGeometry width="50" height="50" relative="1" as="geometry">
                        <mxPoint x="-559" y="-20" as="sourcePoint"/>
                        <mxPoint x="20.5" as="targetPoint"/>
                    </mxGeometry>
                </mxCell>
                <mxCell id="50" value="" style="endArrow=none;html=1;exitX=0.99;exitY=0.227;exitDx=0;exitDy=0;entryX=0;entryY=0.25;entryDx=0;entryDy=0;exitPerimeter=0;" edge="1" parent="129" source="48">
                    <mxGeometry width="50" height="50" relative="1" as="geometry">
                        <mxPoint x="110" y="27.5" as="sourcePoint"/>
                        <mxPoint y="27.5" as="targetPoint"/>
                    </mxGeometry>
                </mxCell>
                <mxCell id="51" value="Publisher" style="text;strokeColor=none;align=center;fillColor=none;html=1;verticalAlign=middle;whiteSpace=wrap;rounded=0;" vertex="1" parent="129">
                    <mxGeometry x="27" y="1" width="60" height="28.27" as="geometry"/>
                </mxCell>
                <mxCell id="52" value="Publish_id" style="text;strokeColor=none;align=center;fillColor=none;html=1;verticalAlign=middle;whiteSpace=wrap;rounded=0;" vertex="1" parent="129">
                    <mxGeometry x="24" y="22.272727272727252" width="60" height="51.81818181818181" as="geometry"/>
                </mxCell>
                <mxCell id="53" value="name" style="text;strokeColor=none;align=center;fillColor=none;html=1;verticalAlign=middle;whiteSpace=wrap;rounded=0;" vertex="1" parent="129">
                    <mxGeometry x="12" y="56" width="60" height="20" as="geometry"/>
                </mxCell>
                <mxCell id="54" value="PK" style="text;strokeColor=none;align=center;fillColor=none;html=1;verticalAlign=middle;whiteSpace=wrap;rounded=0;" vertex="1" parent="129">
                    <mxGeometry y="22.545454545454504" width="20" height="51.81818181818181" as="geometry"/>
                </mxCell>
                <mxCell id="55" value="Year_of_publish" style="text;strokeColor=none;align=center;fillColor=none;html=1;verticalAlign=middle;whiteSpace=wrap;rounded=0;" vertex="1" parent="129">
                    <mxGeometry x="40" y="74.08999999999992" width="60" height="20" as="geometry"/>
                </mxCell>
                <mxCell id="130" style="edgeStyle=orthogonalEdgeStyle;html=1;exitX=0;exitY=0.5;exitDx=0;exitDy=0;entryX=0;entryY=0.5;entryDx=0;entryDy=0;labelBorderColor=none;startArrow=none;startFill=0;endArrow=open;endFill=0;" edge="1" parent="141" source="54" target="33">
                    <mxGeometry relative="1" as="geometry">
                        <Array as="points">
                            <mxPoint x="180" y="49"/>
                            <mxPoint x="180" y="383"/>
                        </Array>
                    </mxGeometry>
                </mxCell>
                <mxCell id="131" style="edgeStyle=orthogonalEdgeStyle;html=1;exitX=1;exitY=0.5;exitDx=0;exitDy=0;entryX=0;entryY=0.5;entryDx=0;entryDy=0;labelBorderColor=none;startArrow=none;startFill=0;endArrow=open;endFill=0;" edge="1" parent="141" source="41" target="122">
                    <mxGeometry relative="1" as="geometry"/>
                </mxCell>
                <mxCell id="138" style="edgeStyle=orthogonalEdgeStyle;html=1;exitX=0;exitY=0.5;exitDx=0;exitDy=0;entryX=0.039;entryY=0.887;entryDx=0;entryDy=0;labelBorderColor=none;startArrow=none;startFill=0;endArrow=open;endFill=0;entryPerimeter=0;" edge="1" parent="141" source="15" target="33">
                    <mxGeometry relative="1" as="geometry">
                        <Array as="points">
                            <mxPoint x="180" y="515"/>
                            <mxPoint x="180" y="396"/>
                        </Array>
                    </mxGeometry>
                </mxCell>
                <mxCell id="139" style="edgeStyle=orthogonalEdgeStyle;html=1;exitX=1;exitY=0.75;exitDx=0;exitDy=0;entryX=0;entryY=0.5;entryDx=0;entryDy=0;labelBorderColor=none;startArrow=none;startFill=0;endArrow=open;endFill=0;" edge="1" parent="141" source="6" target="120">
                    <mxGeometry relative="1" as="geometry">
                        <Array as="points">
                            <mxPoint x="400" y="510"/>
                            <mxPoint x="480" y="510"/>
                            <mxPoint x="480" y="383"/>
                        </Array>
                    </mxGeometry>
                </mxCell>
            </root>
        </mxGraphModel>
    </diagram>
</mxfile>